<svg width="69" height="69" viewBox="0 0 69 69" fill="none" xmlns="http://www.w3.org/2000/svg">
<circle cx="34.5" cy="34.5" r="34.5" fill="#252836"/>
<g clip-path="url(#clip0_74_781)">
<path d="M41.6886 33.9513C41.0311 30.642 44.1722 28.7011 44.1722 28.7011C44.1722 28.7011 42.9484 26.9305 40.8916 26.475C38.8358 26.0185 37.8069 26.5889 36.78 27.0166C35.7521 27.4455 35.2392 27.4455 35.2392 27.4455C33.7559 27.4455 32.6715 25.8749 29.8454 26.5899C27.8984 27.0813 25.8487 29.3289 25.4784 32.0115C25.1081 34.6951 25.9072 38.1193 27.448 40.7731C28.9888 43.429 30.5584 44.4272 31.6724 44.4559C32.7864 44.4836 33.8985 43.6578 35.2392 43.4567C36.581 43.2577 37.4068 43.943 38.7229 44.3133C40.0339 44.6826 40.4935 44.34 42.0036 43.0556C43.5177 41.7713 44.8882 38.0875 44.8882 38.0875C44.8882 38.0875 42.3462 37.2627 41.6886 33.9513Z" fill="white"/>
<path d="M38.7776 24.334C40.2342 22.8497 39.7408 20.5518 39.7408 20.5518C39.7408 20.5518 37.6953 20.9108 36.3248 22.3367C34.9553 23.7636 35.182 26.0174 35.182 26.0174C35.182 26.0174 37.3209 25.8174 38.7776 24.334Z" fill="white"/>
</g>
<defs>
<clipPath id="clip0_74_781">
<rect width="23.9047" height="23.9047" fill="white" transform="translate(23.1865 20.5518)"/>
</clipPath>
</defs>
</svg>
