<svg width="68" height="80" viewBox="0 0 68 80" fill="none" xmlns="http://www.w3.org/2000/svg">
<path d="M33.9977 29.3289C32.4735 29.3289 30.9605 29.5898 29.5243 30.1004L6.10278 38.4279L33.9977 49.0303L34.3848 48.7292V29.3371C34.2557 29.3334 34.1268 29.3289 33.9977 29.3289Z" fill="#05858D"/>
<path d="M19.2952 33.7374L6.10278 38.4279L19.146 43.3854C16.2106 40.8894 16.2763 36.1454 19.2952 33.7374Z" fill="#05858D"/>
<path d="M38.4709 30.1004C37.0348 29.5898 35.5218 29.3289 33.9976 29.3289V48.8741L61.8925 38.4279L38.4709 30.1004Z" fill="#12CDD9"/>
<path d="M33.9977 48.4053L29.2807 53.98C28.8898 54.5198 28.1892 54.7367 27.5615 54.5122L6.10278 46.8369V67.5041C6.10278 68.7293 6.87264 69.8223 8.02626 70.235L30.2181 78.1725C31.4309 78.6062 32.7096 78.8281 33.9976 78.8281C34.1266 78.8281 34.2557 78.8242 34.3846 78.8198V48.8755L33.9977 48.4053Z" fill="#12CDD9"/>
<path d="M11.6873 69.1003V48.8342L6.10278 46.8367V67.504C6.10278 68.7292 6.87264 69.8221 8.02626 70.2348L13.0489 72.0312C12.2032 71.3155 11.6873 70.2529 11.6873 69.1003Z" fill="#05858D"/>
<path d="M40.4338 54.6684C39.8061 54.8929 39.1056 54.6761 38.7145 54.1362L33.9976 48.4055V78.8281C35.2857 78.8281 36.5642 78.6064 37.7772 78.1725L59.969 70.235C61.1226 69.8223 61.8925 68.7293 61.8925 67.5041V46.9931L40.4338 54.6684Z" fill="#12CDD9"/>
<path d="M47.1532 4.65509C45.8565 3.9918 44.7972 2.93068 44.1369 1.63222C43.9934 1.35018 43.7055 1.17096 43.3891 1.17096C43.0725 1.17096 42.7847 1.35018 42.6412 1.63222C41.9809 2.93068 40.9217 3.99164 39.6249 4.65509C39.3438 4.79884 39.1655 5.08619 39.1655 5.40198V5.42261C39.1655 5.73496 39.3383 6.02324 39.6166 6.16528C40.9092 6.82451 41.9657 7.87859 42.6281 9.16924C42.7703 9.44643 43.0581 9.61831 43.3697 9.61831H43.4087C43.7203 9.61831 44.0081 9.44643 44.1503 9.16924C44.8127 7.87859 45.8693 6.82451 47.1618 6.16528C47.4401 6.0234 47.6129 5.73511 47.6129 5.42261V5.40198C47.6126 5.08635 47.4343 4.799 47.1532 4.65509Z" fill="#FFE02F"/>
<path d="M28.2417 8.11949C27.2713 7.62308 26.4786 6.82902 25.9844 5.8573C25.877 5.64621 25.6616 5.51215 25.4247 5.51215C25.1878 5.51215 24.9724 5.64621 24.865 5.8573C24.3708 6.82902 23.5781 7.62308 22.6077 8.11949C22.3974 8.22715 22.2639 8.44215 22.2639 8.6784V8.69386C22.2639 8.92761 22.3933 9.1434 22.6016 9.24965C23.5689 9.74293 24.3597 10.5318 24.8553 11.4978C24.9617 11.7053 25.1772 11.8339 25.4103 11.8339H25.4395C25.6727 11.8339 25.8881 11.7053 25.9945 11.4978C26.4902 10.5318 27.2809 9.74293 28.2483 9.24965C28.4566 9.1434 28.5859 8.92761 28.5859 8.69386V8.6784C28.5855 8.44215 28.452 8.22715 28.2417 8.11949Z" fill="#FFEA7E"/>
<path d="M42.7806 6.16528C42.5023 6.0234 42.3295 5.73511 42.3295 5.42261V5.40198C42.3295 5.08619 42.5078 4.79884 42.7889 4.65509C43.6317 4.22399 44.3733 3.62398 44.9711 2.90084C44.6491 2.5113 44.3681 2.08676 44.1369 1.63222C43.9934 1.35018 43.7055 1.17096 43.3891 1.17096C43.0726 1.17096 42.7847 1.35018 42.6412 1.63222C41.9809 2.93068 40.9217 3.99164 39.6249 4.65509C39.3438 4.79884 39.1655 5.08619 39.1655 5.40198V5.42261C39.1655 5.73496 39.3383 6.02324 39.6166 6.16528C40.9092 6.82451 41.9657 7.87859 42.6281 9.16924C42.7703 9.44643 43.0581 9.61831 43.3697 9.61831H43.4087C43.7203 9.61831 44.0081 9.44643 44.1503 9.16924C44.3789 8.72392 44.6553 8.30751 44.9713 7.925C44.3714 7.19905 43.627 6.597 42.7806 6.16528Z" fill="#FBC700"/>
<path d="M25.3356 9.24965C25.1274 9.1434 24.9981 8.92761 24.9981 8.69386V8.6784C24.9981 8.44215 25.1316 8.22699 25.3419 8.11949C25.8902 7.83902 26.3788 7.4609 26.7919 7.01215C26.4738 6.66652 26.1994 6.28011 25.9844 5.8573C25.8771 5.64621 25.6616 5.51215 25.4247 5.51215C25.1878 5.51215 24.9724 5.64621 24.865 5.8573C24.3708 6.82902 23.5781 7.62308 22.6077 8.11949C22.3974 8.22715 22.2639 8.44215 22.2639 8.6784V8.69386C22.2639 8.92761 22.3933 9.1434 22.6014 9.24965C23.5688 9.74293 24.3595 10.5318 24.8552 11.4978C24.9616 11.7053 25.177 11.8339 25.4102 11.8339H25.4394C25.6725 11.8339 25.888 11.7053 25.9944 11.4978C26.2078 11.082 26.4788 10.7015 26.7921 10.3607C26.3772 9.90996 25.8864 9.53058 25.3356 9.24965Z" fill="#FFE02F"/>
<path d="M66.0972 44.2329L61.8925 38.4279L33.9976 48.4053L38.7145 54.9173C39.1056 55.4572 39.8061 55.6741 40.4338 55.4495L65.3879 46.524C66.329 46.1876 66.6835 45.0421 66.0972 44.2329Z" fill="#12CDD9"/>
<path d="M1.89809 44.2329L6.10286 38.4279L33.9978 48.4053L29.2808 54.9173C28.8897 55.4572 28.1892 55.6741 27.5616 55.4495L2.60733 46.524C1.66637 46.1876 1.31183 45.0421 1.89809 44.2329Z" fill="#12CDD9"/>
<path d="M6.41252 45.892L10.6428 40.0519L6.10267 38.4279L1.89806 44.2329C1.3118 45.0421 1.66649 46.1876 2.60729 46.5242L6.51018 47.9202C6.03064 47.3741 5.94642 46.5356 6.41252 45.892Z" fill="#05858D"/>
<path d="M5.26119 37.7406L1.05658 43.5454C0.0117108 44.9878 0.642036 47.0273 2.32035 47.6275L5.03853 48.5997V67.504C5.03853 69.2196 6.12386 70.7606 7.73936 71.3383L29.931 79.2758C32.5847 80.2252 35.5348 80.2575 38.2793 79.2758L60.4712 71.3383C62.0867 70.7606 63.172 69.2196 63.172 67.504V61.5224C63.172 60.8751 62.6475 60.3506 62.0001 60.3506C61.3528 60.3506 60.8282 60.8751 60.8282 61.5224V67.504C60.8282 68.2321 60.3676 68.8862 59.6819 69.1315L37.4899 77.069C36.7709 77.3262 36.0302 77.4998 35.2771 77.5879V52.0209L37.8731 55.6047C38.5604 56.5542 39.822 56.9519 40.9363 56.553C42.1782 56.1088 60.2787 49.6347 60.8284 49.438V56.0534C60.8284 56.7008 61.3529 57.2253 62.0003 57.2253C62.6476 57.2253 63.1722 56.7008 63.1722 56.0534V48.5997L65.8903 47.6275C67.5674 47.0276 68.1996 44.9884 67.1538 43.5452L67.154 43.5454L62.9493 37.7406C62.8295 37.5748 62.6193 37.4043 62.3928 37.3239L52.2346 33.7122C51.6246 33.4949 50.9546 33.8138 50.7379 34.4238C50.521 35.0337 50.8396 35.7037 51.4494 35.9205L58.5111 38.4314L35.2769 46.7415V30.5569C36.2679 30.6523 37.2423 30.869 38.1859 31.2047L46.2675 34.0782C46.8773 34.2954 47.5475 33.9766 47.7642 33.3666C47.9811 32.7567 47.6625 32.0867 47.0526 31.8698L38.9711 28.9964C35.9024 27.9051 32.4667 27.8485 29.239 28.9964L5.81761 37.3239C5.59416 37.4034 5.38682 37.5671 5.26119 37.7406ZM2.95458 44.9204L6.6434 39.8275L32.2397 48.9827C31.3711 50.1818 32.1284 49.1364 28.439 54.23C28.3541 54.347 28.1993 54.3945 28.0637 54.3462C27.6277 54.1903 3.56537 45.5837 3.10958 45.4207C2.9038 45.347 2.8263 45.0974 2.95458 44.9204ZM8.52844 69.1315C7.8428 68.8863 7.38217 68.2321 7.38217 67.504V49.438L27.2744 56.553C28.399 56.9553 29.6514 56.5444 30.3321 55.6116C30.3339 55.6092 30.3357 55.6072 30.3375 55.6048C30.3375 55.6047 30.3375 55.6047 30.3375 55.6047L32.9333 52.0209V77.5878C32.1802 77.4996 31.4394 77.326 30.7203 77.069L8.52844 69.1315ZM65.2558 44.9204C65.3839 45.0973 65.3064 45.347 65.101 45.4207C64.8664 45.5046 40.3933 54.2579 40.1469 54.3461C40.0112 54.3948 39.8562 54.3472 39.7714 54.23L35.9705 48.9827L61.567 39.8275L65.2558 44.9204ZM30.0243 31.2047C30.9679 30.8692 31.9422 30.6525 32.9331 30.5569V46.7415C31.9281 46.382 10.6044 38.7551 9.69909 38.4312L30.0243 31.2047Z" fill="#252836"/>
<path d="M35.2769 24.4213V9.7752C35.2769 9.12784 34.7524 8.6033 34.105 8.6033C33.4576 8.6033 32.9331 9.12784 32.9331 9.7752V24.4211C32.9331 25.0685 33.4576 25.593 34.105 25.593C34.7524 25.593 35.2769 25.0685 35.2769 24.4213Z" fill="#FF8700"/>
<path d="M49.6224 12.0156C49.2878 12.162 41.4107 15.7119 40.1084 25.4763C40.0149 26.1774 40.5596 26.8032 41.2715 26.8032C41.8498 26.8032 42.3531 26.3751 42.4317 25.786C42.9015 22.2626 44.4016 19.2424 46.89 16.8092C48.7601 14.9806 50.5243 14.1797 50.5639 14.162C51.1551 13.9018 51.4247 13.212 51.1658 12.6198C50.9065 12.0268 50.2161 11.7565 49.6224 12.0156Z" fill="#FF8700"/>
<path d="M47.241 27.9796C46.9194 28.5413 47.1141 29.2573 47.6759 29.5787C48.2368 29.9 48.9532 29.7061 49.275 29.1439C51.9969 24.3888 56.0401 22.5325 58.9528 21.8128C59.5811 21.6575 59.9645 21.0221 59.8092 20.3938C59.6539 19.7656 59.0184 19.3818 58.3903 19.5374C55.6423 20.2168 50.5398 22.2165 47.241 27.9796Z" fill="#FF8700"/>
<path d="M17.0445 12.6198C16.7852 13.2128 17.0557 13.9037 17.6487 14.1631C17.7185 14.1936 24.649 17.3163 25.7785 25.7861C25.8643 26.4297 26.4559 26.8783 27.0951 26.7929C27.7367 26.7072 28.1873 26.1179 28.1019 25.4763C26.7995 15.7119 18.9223 12.1618 18.5876 12.0156C17.9946 11.7565 17.304 12.027 17.0445 12.6198Z" fill="#FF8700"/>
<path d="M8.40091 20.3938C8.24575 21.0221 8.6292 21.6575 9.25734 21.8128C12.17 22.5326 16.2134 24.3889 18.9352 29.1439C19.2569 29.7061 19.9733 29.9001 20.5343 29.5787C21.096 29.2571 21.2907 28.5412 20.9691 27.9796C17.6705 22.2165 12.5677 20.2167 9.81985 19.5374C9.19108 19.3819 8.55623 19.7659 8.40091 20.3938Z" fill="#FF8700"/>
<path d="M55.5547 11.9174C54.9073 11.9174 54.3828 12.4419 54.3828 13.0893C54.3828 13.7366 54.9073 14.2611 55.5547 14.2611H56.3708V15.0772C56.3708 15.7246 56.8953 16.2491 57.5427 16.2491C58.19 16.2491 58.7145 15.7246 58.7145 15.0772V14.2611H59.5306C60.178 14.2611 60.7025 13.7366 60.7025 13.0893C60.7025 12.4419 60.178 11.9174 59.5306 11.9174H58.7145V11.1014C58.7145 10.4541 58.19 9.92957 57.5427 9.92957C56.8953 9.92957 56.3708 10.4541 56.3708 11.1014V11.9174H55.5547Z" fill="#FF8700"/>
<path d="M8.36663 28.1569H7.55054C6.90319 28.1569 6.37866 28.6815 6.37866 29.3288C6.37866 29.9761 6.90319 30.5007 7.55054 30.5007H8.36663V31.3168C8.36663 31.9641 8.89116 32.4886 9.53851 32.4886C10.1858 32.4886 10.7104 31.9641 10.7104 31.3168V30.5007H11.5265C12.1738 30.5007 12.6983 29.9761 12.6983 29.3288C12.6983 28.6815 12.1738 28.1569 11.5265 28.1569H10.7104V27.3408C10.7104 26.6935 10.1858 26.169 9.53851 26.169C8.89116 26.169 8.36663 26.6935 8.36663 27.3408V28.1569Z" fill="#FF8700"/>
<path d="M47.7945 3.61195C46.7235 3.06397 45.8336 2.17223 45.2889 1.10096C44.5417 -0.367036 42.4512 -0.36688 41.704 1.10127C41.1595 2.17223 40.2695 3.06413 39.1987 3.61179C37.7315 4.36212 37.7413 6.46966 39.1916 7.20921C40.2579 7.75297 41.1464 8.63908 41.6929 9.70441C42.4367 11.1535 44.5564 11.1538 45.3004 9.70426C45.8469 8.63924 46.7354 7.75312 47.8018 7.20905C49.2515 6.46966 49.262 4.36274 47.7945 3.61195ZM43.4964 8.13157C42.8236 7.02655 41.8825 6.08544 40.7775 5.41245C41.8829 4.73963 42.8237 3.79945 43.4966 2.69521C44.1696 3.79945 45.1102 4.73963 46.2154 5.41245C45.1105 6.08544 44.1694 7.02639 43.4964 8.13157Z" fill="#252836"/>
<path d="M23.9198 12.0331C24.5856 13.33 26.4785 13.332 27.1444 12.0331C27.5254 11.2905 28.1446 10.6729 28.8879 10.2938C30.1768 9.6366 30.2051 7.75313 28.8833 7.0764C28.8832 7.07624 28.883 7.07624 28.8829 7.07608C28.1365 6.69436 27.5163 6.07294 27.1364 5.32605C26.4685 4.01274 24.5962 4.01243 23.9278 5.32621C23.5481 6.07278 22.9279 6.69436 22.1806 7.07655C20.8784 7.7436 20.8685 9.62691 22.1765 10.2938C22.9196 10.6727 23.5389 11.2905 23.9198 12.0331ZM25.532 7.18734C25.9445 7.76532 26.4536 8.27423 27.0321 8.68643C26.4539 9.09878 25.9445 9.60801 25.532 10.1865C25.1197 9.60832 24.6105 9.09878 24.0322 8.68643C24.6106 8.27408 25.1198 7.76532 25.532 7.18734Z" fill="#252836"/>
</svg>
