<svg width="74" height="74" viewBox="0 0 74 74" fill="none" xmlns="http://www.w3.org/2000/svg">
<path fill-rule="evenodd" clip-rule="evenodd" d="M45.3135 6.42139C33.0172 6.42139 23.0488 16.3896 23.0488 28.6861C23.0488 40.9826 33.017 50.9508 45.3135 50.9508C45.8559 50.9508 46.3938 50.9312 46.9262 50.8932C46.8839 50.6762 46.8618 50.4528 46.8618 50.2251C46.8618 48.2715 48.4601 46.6732 50.4138 46.6732H51.1799C51.1799 42.7498 54.3603 39.5692 58.2838 39.5692C60.278 39.5692 62.0802 40.3909 63.3702 41.7144C66.0177 38.0514 67.578 33.5511 67.578 28.6862C67.5783 16.3897 57.6101 6.42139 45.3135 6.42139Z" fill="#12CDD9"/>
<path fill-rule="evenodd" clip-rule="evenodd" d="M23.0487 28.6862C23.0487 16.3897 33.0169 6.42148 45.3135 6.42148C57.61 6.42148 67.5782 16.3897 67.5782 28.6862C67.5782 33.551 66.0179 38.0515 63.3704 41.7142C63.7544 42.1081 64.0932 42.5464 64.3781 43.0208C64.7675 42.9135 65.1773 42.8559 65.6006 42.8559C66.8748 42.8559 68.0276 43.3753 68.8587 44.2141C71.8016 39.7607 73.5153 34.4238 73.5153 28.6863C73.5153 13.1108 60.8888 0.484375 45.3133 0.484375C37.3025 0.484375 30.0716 3.82453 24.9375 9.1881C22.5913 11.6391 20.683 14.5128 19.3384 17.6834C17.9045 21.0642 17.1113 24.7826 17.1113 28.6863C17.1113 34.8973 19.1192 40.6394 22.5211 45.2988C24.2482 47.6643 26.3347 49.7508 28.7001 51.4781C33.3598 54.8802 39.102 56.8882 45.3133 56.8882C49.957 56.8882 54.3384 55.7654 58.2015 53.7772C55.5978 53.7772 52.9942 53.7772 50.3904 53.7772C48.6814 53.7772 47.2419 52.5158 46.926 50.8933C46.3936 50.9315 45.8557 50.9509 45.3133 50.9509C33.0169 50.9509 23.0487 40.9827 23.0487 28.6862Z" fill="#FF8700"/>
<path fill-rule="evenodd" clip-rule="evenodd" d="M19.3392 17.6833C20.684 14.5127 22.5922 11.6391 24.9383 9.18802C24.1655 7.74438 22.643 6.76206 20.8911 6.76206C20.4676 6.76206 20.0578 6.81965 19.6686 6.92696C18.4267 4.85902 16.162 3.47534 13.5743 3.47534C9.6508 3.47534 6.47036 6.65593 6.47036 10.5793H5.70431C3.75065 10.5793 2.15234 12.1776 2.15234 14.1312C2.15234 16.0619 3.74338 17.6832 5.681 17.6832H19.3392V17.6833Z" fill="#12CDD9"/>
<path fill-rule="evenodd" clip-rule="evenodd" d="M58.2843 39.5691C54.3608 39.5691 51.1803 42.7497 51.1803 46.673H50.4143C48.4606 46.673 46.8623 48.2713 46.8623 50.225C46.8623 50.4527 46.8844 50.6762 46.9267 50.8931C47.2426 52.5154 48.6819 53.7769 50.3911 53.7769H58.2022H70.1765C72.0133 53.7769 73.5162 52.2741 73.5162 50.4372C73.5162 48.6002 72.0134 47.0975 70.1765 47.0975C70.0927 45.9757 69.6056 44.9662 68.8597 44.2136C68.0283 43.375 66.8756 42.8557 65.6015 42.8557C65.178 42.8557 64.7682 42.9132 64.379 43.0206C64.0942 42.5462 63.7554 42.1079 63.3713 41.7139C62.0807 40.3908 60.2786 39.5691 58.2843 39.5691Z" fill="#12CDD9"/>
<path fill-rule="evenodd" clip-rule="evenodd" d="M22.8815 57.5506L16.4491 51.1182L1.93885 65.0237C0.0034551 66.9591 0.0034551 70.1258 1.93885 72.0612C3.87425 73.9966 7.04104 73.9966 8.97643 72.0612L22.8815 57.5506Z" fill="#FF8700"/>
<path fill-rule="evenodd" clip-rule="evenodd" d="M16.4492 51.1181L22.8816 57.5506L28.7009 51.4779C26.3353 49.7506 24.249 47.6641 22.5218 45.2986L16.4492 51.1181Z" fill="#FFC144"/>
</svg>
